<mxfile host="Electron" agent="Mozilla/5.0 (Windows NT 10.0; Win64; x64) AppleWebKit/537.36 (KHTML, like Gecko) draw.io/28.0.6 Chrome/138.0.7204.100 Electron/37.2.3 Safari/537.36" version="28.0.6">
  <diagram name="discovery" id="jQ8CUs2Zw8aTY-ST0tf7">
    <mxGraphModel dx="1684" dy="501" grid="1" gridSize="10" guides="1" tooltips="1" connect="1" arrows="1" fold="1" page="1" pageScale="1" pageWidth="850" pageHeight="1100" math="0" shadow="0">
      <root>
        <mxCell id="0" />
        <mxCell id="1" parent="0" />
        <mxCell id="nk3MQOf8kGJerJ07VEL7-6" style="edgeStyle=orthogonalEdgeStyle;rounded=0;orthogonalLoop=1;jettySize=auto;html=1;exitX=0.5;exitY=1;exitDx=0;exitDy=0;entryX=0.5;entryY=0;entryDx=0;entryDy=0;" edge="1" parent="1" source="nk3MQOf8kGJerJ07VEL7-19" target="nk3MQOf8kGJerJ07VEL7-13">
          <mxGeometry relative="1" as="geometry">
            <mxPoint x="330" y="300" as="sourcePoint" />
            <mxPoint x="440" y="330" as="targetPoint" />
          </mxGeometry>
        </mxCell>
        <mxCell id="nk3MQOf8kGJerJ07VEL7-9" style="edgeStyle=orthogonalEdgeStyle;rounded=0;orthogonalLoop=1;jettySize=auto;html=1;exitX=1;exitY=0.5;exitDx=0;exitDy=0;entryX=0;entryY=0.5;entryDx=0;entryDy=0;" edge="1" parent="1" source="nk3MQOf8kGJerJ07VEL7-19" target="nk3MQOf8kGJerJ07VEL7-8">
          <mxGeometry relative="1" as="geometry">
            <mxPoint x="390" y="270" as="sourcePoint" />
          </mxGeometry>
        </mxCell>
        <mxCell id="nk3MQOf8kGJerJ07VEL7-11" style="edgeStyle=orthogonalEdgeStyle;rounded=0;orthogonalLoop=1;jettySize=auto;html=1;exitX=1;exitY=0.5;exitDx=0;exitDy=0;entryX=0;entryY=0.5;entryDx=0;entryDy=0;dashed=1;dashPattern=12 12;" edge="1" parent="1" source="nk3MQOf8kGJerJ07VEL7-5" target="nk3MQOf8kGJerJ07VEL7-10">
          <mxGeometry relative="1" as="geometry" />
        </mxCell>
        <mxCell id="nk3MQOf8kGJerJ07VEL7-5" value="&lt;span style=&quot;font-size: 14px;&quot;&gt;Register to orchestrator with POST request&lt;/span&gt;" style="rounded=0;whiteSpace=wrap;html=1;" vertex="1" parent="1">
          <mxGeometry x="270" y="508" width="120" height="60" as="geometry" />
        </mxCell>
        <mxCell id="nk3MQOf8kGJerJ07VEL7-12" style="edgeStyle=orthogonalEdgeStyle;rounded=0;orthogonalLoop=1;jettySize=auto;html=1;exitX=0.5;exitY=1;exitDx=0;exitDy=0;entryX=0.5;entryY=0;entryDx=0;entryDy=0;dashed=1;dashPattern=12 12;" edge="1" parent="1" source="nk3MQOf8kGJerJ07VEL7-8" target="nk3MQOf8kGJerJ07VEL7-10">
          <mxGeometry relative="1" as="geometry" />
        </mxCell>
        <mxCell id="nk3MQOf8kGJerJ07VEL7-8" value="&lt;span style=&quot;font-size: 14px;&quot;&gt;Start mDNS service advertisement&lt;/span&gt;" style="rounded=0;whiteSpace=wrap;html=1;" vertex="1" parent="1">
          <mxGeometry x="520" y="240" width="120" height="60" as="geometry" />
        </mxCell>
        <mxCell id="nk3MQOf8kGJerJ07VEL7-21" style="edgeStyle=orthogonalEdgeStyle;rounded=0;orthogonalLoop=1;jettySize=auto;html=1;exitX=1;exitY=0.5;exitDx=0;exitDy=0;entryX=0;entryY=0.5;entryDx=0;entryDy=0;" edge="1" parent="1" source="nk3MQOf8kGJerJ07VEL7-37" target="nk3MQOf8kGJerJ07VEL7-20">
          <mxGeometry relative="1" as="geometry" />
        </mxCell>
        <mxCell id="nk3MQOf8kGJerJ07VEL7-38" style="edgeStyle=orthogonalEdgeStyle;rounded=0;orthogonalLoop=1;jettySize=auto;html=1;exitX=0.5;exitY=1;exitDx=0;exitDy=0;entryX=0.5;entryY=0;entryDx=0;entryDy=0;" edge="1" parent="1" source="nk3MQOf8kGJerJ07VEL7-10" target="nk3MQOf8kGJerJ07VEL7-37">
          <mxGeometry relative="1" as="geometry" />
        </mxCell>
        <mxCell id="nk3MQOf8kGJerJ07VEL7-10" value="&lt;span style=&quot;font-size: 14px;&quot;&gt;Orchestrator discovers the supervisor&lt;/span&gt;" style="rounded=0;whiteSpace=wrap;html=1;" vertex="1" parent="1">
          <mxGeometry x="520" y="508" width="120" height="60" as="geometry" />
        </mxCell>
        <mxCell id="nk3MQOf8kGJerJ07VEL7-14" style="edgeStyle=orthogonalEdgeStyle;rounded=0;orthogonalLoop=1;jettySize=auto;html=1;exitX=0.5;exitY=1;exitDx=0;exitDy=0;entryX=0.5;entryY=0;entryDx=0;entryDy=0;" edge="1" parent="1" source="nk3MQOf8kGJerJ07VEL7-13" target="nk3MQOf8kGJerJ07VEL7-5">
          <mxGeometry relative="1" as="geometry" />
        </mxCell>
        <mxCell id="nk3MQOf8kGJerJ07VEL7-15" value="&lt;font style=&quot;font-size: 14px;&quot;&gt;yes&lt;/font&gt;" style="edgeLabel;html=1;align=center;verticalAlign=middle;resizable=0;points=[];" vertex="1" connectable="0" parent="nk3MQOf8kGJerJ07VEL7-14">
          <mxGeometry x="-0.35" y="-2" relative="1" as="geometry">
            <mxPoint x="-13" as="offset" />
          </mxGeometry>
        </mxCell>
        <mxCell id="nk3MQOf8kGJerJ07VEL7-17" style="edgeStyle=orthogonalEdgeStyle;rounded=0;orthogonalLoop=1;jettySize=auto;html=1;exitX=1;exitY=0.5;exitDx=0;exitDy=0;entryX=0;entryY=0.5;entryDx=0;entryDy=0;" edge="1" parent="1" source="nk3MQOf8kGJerJ07VEL7-13" target="nk3MQOf8kGJerJ07VEL7-16">
          <mxGeometry relative="1" as="geometry" />
        </mxCell>
        <mxCell id="nk3MQOf8kGJerJ07VEL7-18" value="&lt;font style=&quot;font-size: 14px;&quot;&gt;no&lt;/font&gt;" style="edgeLabel;html=1;align=center;verticalAlign=middle;resizable=0;points=[];" vertex="1" connectable="0" parent="nk3MQOf8kGJerJ07VEL7-17">
          <mxGeometry y="1" relative="1" as="geometry">
            <mxPoint y="-9" as="offset" />
          </mxGeometry>
        </mxCell>
        <mxCell id="nk3MQOf8kGJerJ07VEL7-13" value="&lt;span style=&quot;font-size: 14px; text-wrap-mode: nowrap; background-color: rgb(255, 255, 255);&quot;&gt;orchestrator&lt;/span&gt;&lt;br style=&quot;font-size: 14px; text-wrap-mode: nowrap;&quot;&gt;&lt;span style=&quot;font-size: 14px; text-wrap-mode: nowrap; background-color: rgb(255, 255, 255);&quot;&gt;url is set&lt;/span&gt;" style="rhombus;whiteSpace=wrap;html=1;" vertex="1" parent="1">
          <mxGeometry x="270" y="370" width="120" height="90" as="geometry" />
        </mxCell>
        <mxCell id="nk3MQOf8kGJerJ07VEL7-16" value="" style="ellipse;whiteSpace=wrap;html=1;aspect=fixed;fillColor=#000000;" vertex="1" parent="1">
          <mxGeometry x="440" y="405" width="20" height="20" as="geometry" />
        </mxCell>
        <mxCell id="nk3MQOf8kGJerJ07VEL7-19" value="&lt;span style=&quot;font-size: 14px;&quot;&gt;Supervisor&lt;/span&gt;&lt;br style=&quot;font-size: 14px;&quot;&gt;&lt;span style=&quot;font-size: 14px;&quot;&gt;discovery process starts&lt;/span&gt;" style="ellipse;whiteSpace=wrap;html=1;aspect=fixed;" vertex="1" parent="1">
          <mxGeometry x="275" y="215" width="110" height="110" as="geometry" />
        </mxCell>
        <mxCell id="nk3MQOf8kGJerJ07VEL7-20" value="&lt;span style=&quot;font-size: 14px;&quot;&gt;Set orchestror url to the supervisor&lt;/span&gt;" style="rounded=0;whiteSpace=wrap;html=1;" vertex="1" parent="1">
          <mxGeometry x="710" y="630" width="120" height="60" as="geometry" />
        </mxCell>
        <mxCell id="nk3MQOf8kGJerJ07VEL7-27" style="edgeStyle=orthogonalEdgeStyle;rounded=0;orthogonalLoop=1;jettySize=auto;html=1;exitX=0.5;exitY=1;exitDx=0;exitDy=0;entryX=0.5;entryY=0;entryDx=0;entryDy=0;" edge="1" parent="1" source="nk3MQOf8kGJerJ07VEL7-22" target="nk3MQOf8kGJerJ07VEL7-25">
          <mxGeometry relative="1" as="geometry" />
        </mxCell>
        <mxCell id="nk3MQOf8kGJerJ07VEL7-22" value="&lt;span style=&quot;font-size: 14px;&quot;&gt;Incoming&lt;br&gt;health check&lt;br&gt;to supervisor&lt;/span&gt;" style="ellipse;whiteSpace=wrap;html=1;aspect=fixed;" vertex="1" parent="1">
          <mxGeometry x="40" y="550" width="110" height="110" as="geometry" />
        </mxCell>
        <mxCell id="nk3MQOf8kGJerJ07VEL7-23" style="edgeStyle=orthogonalEdgeStyle;rounded=0;orthogonalLoop=1;jettySize=auto;html=1;exitX=1;exitY=0.5;exitDx=0;exitDy=0;entryX=0;entryY=0.5;entryDx=0;entryDy=0;" edge="1" source="nk3MQOf8kGJerJ07VEL7-25" target="nk3MQOf8kGJerJ07VEL7-34" parent="1">
          <mxGeometry relative="1" as="geometry">
            <mxPoint x="310" y="845" as="targetPoint" />
          </mxGeometry>
        </mxCell>
        <mxCell id="nk3MQOf8kGJerJ07VEL7-24" value="&lt;font style=&quot;font-size: 14px;&quot;&gt;no&lt;/font&gt;" style="edgeLabel;html=1;align=center;verticalAlign=middle;resizable=0;points=[];" vertex="1" connectable="0" parent="nk3MQOf8kGJerJ07VEL7-23">
          <mxGeometry y="1" relative="1" as="geometry">
            <mxPoint y="-10" as="offset" />
          </mxGeometry>
        </mxCell>
        <mxCell id="nk3MQOf8kGJerJ07VEL7-25" value="&lt;span style=&quot;font-size: 14px; text-wrap-mode: nowrap; background-color: rgb(255, 255, 255);&quot;&gt;orchestrator&lt;/span&gt;&lt;br style=&quot;font-size: 14px; text-wrap-mode: nowrap;&quot;&gt;&lt;span style=&quot;font-size: 14px; text-wrap-mode: nowrap; background-color: rgb(255, 255, 255);&quot;&gt;url is set&lt;/span&gt;" style="rhombus;whiteSpace=wrap;html=1;" vertex="1" parent="1">
          <mxGeometry x="35" y="710" width="120" height="90" as="geometry" />
        </mxCell>
        <mxCell id="nk3MQOf8kGJerJ07VEL7-28" style="edgeStyle=orthogonalEdgeStyle;rounded=0;orthogonalLoop=1;jettySize=auto;html=1;exitX=0.5;exitY=1;exitDx=0;exitDy=0;entryX=0.5;entryY=0;entryDx=0;entryDy=0;" edge="1" parent="1" source="nk3MQOf8kGJerJ07VEL7-25" target="nk3MQOf8kGJerJ07VEL7-40">
          <mxGeometry relative="1" as="geometry">
            <mxPoint x="220" y="420" as="sourcePoint" />
            <mxPoint x="200" y="984.800048828125" as="targetPoint" />
          </mxGeometry>
        </mxCell>
        <mxCell id="nk3MQOf8kGJerJ07VEL7-29" value="&lt;font style=&quot;font-size: 14px;&quot;&gt;yes&lt;/font&gt;" style="edgeLabel;html=1;align=center;verticalAlign=middle;resizable=0;points=[];" vertex="1" connectable="0" parent="nk3MQOf8kGJerJ07VEL7-28">
          <mxGeometry x="-0.35" y="-2" relative="1" as="geometry">
            <mxPoint x="-13" y="6" as="offset" />
          </mxGeometry>
        </mxCell>
        <mxCell id="nk3MQOf8kGJerJ07VEL7-30" value="&lt;span style=&quot;text-wrap-mode: nowrap; background-color: rgb(255, 255, 255); font-size: 14px;&quot;&gt;request&lt;br&gt;origin&lt;br&gt;matches&lt;br&gt;orchestrator&lt;/span&gt;" style="rhombus;whiteSpace=wrap;html=1;" vertex="1" parent="1">
          <mxGeometry x="210" y="812.5" width="160" height="135" as="geometry" />
        </mxCell>
        <mxCell id="nk3MQOf8kGJerJ07VEL7-31" style="edgeStyle=orthogonalEdgeStyle;rounded=0;orthogonalLoop=1;jettySize=auto;html=1;exitX=1;exitY=0.5;exitDx=0;exitDy=0;entryX=0;entryY=0.5;entryDx=0;entryDy=0;" edge="1" target="nk3MQOf8kGJerJ07VEL7-33" parent="1" source="nk3MQOf8kGJerJ07VEL7-30">
          <mxGeometry relative="1" as="geometry">
            <mxPoint x="450" y="970" as="sourcePoint" />
          </mxGeometry>
        </mxCell>
        <mxCell id="nk3MQOf8kGJerJ07VEL7-32" value="&lt;font style=&quot;font-size: 14px;&quot;&gt;no&lt;/font&gt;" style="edgeLabel;html=1;align=center;verticalAlign=middle;resizable=0;points=[];" vertex="1" connectable="0" parent="nk3MQOf8kGJerJ07VEL7-31">
          <mxGeometry y="1" relative="1" as="geometry">
            <mxPoint y="-9" as="offset" />
          </mxGeometry>
        </mxCell>
        <mxCell id="nk3MQOf8kGJerJ07VEL7-33" value="" style="ellipse;whiteSpace=wrap;html=1;aspect=fixed;fillColor=#000000;" vertex="1" parent="1">
          <mxGeometry x="430" y="870" width="20" height="20" as="geometry" />
        </mxCell>
        <mxCell id="nk3MQOf8kGJerJ07VEL7-39" style="rounded=0;orthogonalLoop=1;jettySize=auto;html=1;exitX=1;exitY=0;exitDx=0;exitDy=0;entryX=0;entryY=0.5;entryDx=0;entryDy=0;dashed=1;dashPattern=12 12;" edge="1" parent="1" source="nk3MQOf8kGJerJ07VEL7-34" target="nk3MQOf8kGJerJ07VEL7-37">
          <mxGeometry relative="1" as="geometry" />
        </mxCell>
        <mxCell id="nk3MQOf8kGJerJ07VEL7-34" value="&lt;span style=&quot;font-size: 14px;&quot;&gt;Response with custom header&lt;br&gt;set to &quot;false&quot;&lt;/span&gt;" style="rounded=0;whiteSpace=wrap;html=1;" vertex="1" parent="1">
          <mxGeometry x="230" y="725" width="120" height="60" as="geometry" />
        </mxCell>
        <mxCell id="nk3MQOf8kGJerJ07VEL7-37" value="&lt;span style=&quot;font-size: 14px;&quot;&gt;Orchestrator calls supervisor /register endpoint&lt;/span&gt;" style="rounded=0;whiteSpace=wrap;html=1;" vertex="1" parent="1">
          <mxGeometry x="520" y="630" width="120" height="60" as="geometry" />
        </mxCell>
        <mxCell id="nk3MQOf8kGJerJ07VEL7-44" style="edgeStyle=orthogonalEdgeStyle;rounded=0;orthogonalLoop=1;jettySize=auto;html=1;exitX=1;exitY=0.5;exitDx=0;exitDy=0;entryX=0;entryY=0.5;entryDx=0;entryDy=0;" edge="1" parent="1" source="nk3MQOf8kGJerJ07VEL7-40" target="nk3MQOf8kGJerJ07VEL7-30">
          <mxGeometry relative="1" as="geometry" />
        </mxCell>
        <mxCell id="nk3MQOf8kGJerJ07VEL7-40" value="&lt;span style=&quot;font-size: 14px;&quot;&gt;Response with custom header&lt;br&gt;set to &quot;true&quot;&lt;/span&gt;" style="rounded=0;whiteSpace=wrap;html=1;" vertex="1" parent="1">
          <mxGeometry x="35" y="850" width="120" height="60" as="geometry" />
        </mxCell>
        <mxCell id="nk3MQOf8kGJerJ07VEL7-55" style="edgeStyle=orthogonalEdgeStyle;rounded=0;orthogonalLoop=1;jettySize=auto;html=1;exitX=0.5;exitY=1;exitDx=0;exitDy=0;entryX=0.5;entryY=0;entryDx=0;entryDy=0;" edge="1" parent="1" source="nk3MQOf8kGJerJ07VEL7-47" target="nk3MQOf8kGJerJ07VEL7-53">
          <mxGeometry relative="1" as="geometry" />
        </mxCell>
        <mxCell id="nk3MQOf8kGJerJ07VEL7-47" value="&lt;span style=&quot;font-size: 14px;&quot;&gt;Discovery&lt;br&gt;timer check&lt;/span&gt;" style="ellipse;whiteSpace=wrap;html=1;aspect=fixed;" vertex="1" parent="1">
          <mxGeometry x="-80" y="74" width="110" height="110" as="geometry" />
        </mxCell>
        <mxCell id="nk3MQOf8kGJerJ07VEL7-58" style="rounded=0;orthogonalLoop=1;jettySize=auto;html=1;exitX=1;exitY=0.5;exitDx=0;exitDy=0;entryX=0;entryY=0.5;entryDx=0;entryDy=0;" edge="1" parent="1" source="nk3MQOf8kGJerJ07VEL7-48" target="nk3MQOf8kGJerJ07VEL7-19">
          <mxGeometry relative="1" as="geometry" />
        </mxCell>
        <mxCell id="nk3MQOf8kGJerJ07VEL7-48" value="&lt;span style=&quot;font-size: 14px;&quot;&gt;Reset the discovery process&lt;/span&gt;" style="rounded=0;whiteSpace=wrap;html=1;" vertex="1" parent="1">
          <mxGeometry x="77" y="240" width="120" height="60" as="geometry" />
        </mxCell>
        <mxCell id="nk3MQOf8kGJerJ07VEL7-49" style="edgeStyle=orthogonalEdgeStyle;rounded=0;orthogonalLoop=1;jettySize=auto;html=1;exitX=1;exitY=0.5;exitDx=0;exitDy=0;entryX=0;entryY=0.5;entryDx=0;entryDy=0;" edge="1" source="nk3MQOf8kGJerJ07VEL7-53" target="nk3MQOf8kGJerJ07VEL7-48" parent="1">
          <mxGeometry relative="1" as="geometry" />
        </mxCell>
        <mxCell id="nk3MQOf8kGJerJ07VEL7-50" value="&lt;font style=&quot;font-size: 14px;&quot;&gt;yes&lt;/font&gt;" style="edgeLabel;html=1;align=center;verticalAlign=middle;resizable=0;points=[];" vertex="1" connectable="0" parent="nk3MQOf8kGJerJ07VEL7-49">
          <mxGeometry x="-0.35" y="-2" relative="1" as="geometry">
            <mxPoint x="5" y="-13" as="offset" />
          </mxGeometry>
        </mxCell>
        <mxCell id="nk3MQOf8kGJerJ07VEL7-51" style="edgeStyle=orthogonalEdgeStyle;rounded=0;orthogonalLoop=1;jettySize=auto;html=1;exitX=0;exitY=0.5;exitDx=0;exitDy=0;entryX=1;entryY=0.5;entryDx=0;entryDy=0;" edge="1" source="nk3MQOf8kGJerJ07VEL7-53" target="nk3MQOf8kGJerJ07VEL7-56" parent="1">
          <mxGeometry relative="1" as="geometry">
            <mxPoint x="72" y="270" as="targetPoint" />
          </mxGeometry>
        </mxCell>
        <mxCell id="nk3MQOf8kGJerJ07VEL7-52" value="&lt;font style=&quot;font-size: 14px;&quot;&gt;no&lt;/font&gt;" style="edgeLabel;html=1;align=center;verticalAlign=middle;resizable=0;points=[];" vertex="1" connectable="0" parent="nk3MQOf8kGJerJ07VEL7-51">
          <mxGeometry y="1" relative="1" as="geometry">
            <mxPoint x="5" y="-12" as="offset" />
          </mxGeometry>
        </mxCell>
        <mxCell id="nk3MQOf8kGJerJ07VEL7-53" value="&lt;span style=&quot;font-size: 14px; text-wrap-mode: nowrap; background-color: rgb(255, 255, 255);&quot;&gt;timer &amp;gt;&lt;br&gt;max value&lt;/span&gt;" style="rhombus;whiteSpace=wrap;html=1;" vertex="1" parent="1">
          <mxGeometry x="-85" y="225" width="120" height="90" as="geometry" />
        </mxCell>
        <mxCell id="nk3MQOf8kGJerJ07VEL7-57" style="rounded=0;orthogonalLoop=1;jettySize=auto;html=1;exitX=0.5;exitY=0;exitDx=0;exitDy=0;entryX=0;entryY=0.5;entryDx=0;entryDy=0;" edge="1" parent="1" source="nk3MQOf8kGJerJ07VEL7-56" target="nk3MQOf8kGJerJ07VEL7-47">
          <mxGeometry relative="1" as="geometry" />
        </mxCell>
        <mxCell id="nk3MQOf8kGJerJ07VEL7-56" value="&lt;span style=&quot;font-size: 14px;&quot;&gt;Sleep for&lt;br&gt;a minute&lt;/span&gt;" style="rounded=0;whiteSpace=wrap;html=1;" vertex="1" parent="1">
          <mxGeometry x="-250" y="240" width="120" height="60" as="geometry" />
        </mxCell>
        <mxCell id="nk3MQOf8kGJerJ07VEL7-60" style="edgeStyle=orthogonalEdgeStyle;rounded=0;orthogonalLoop=1;jettySize=auto;html=1;exitX=0.5;exitY=1;exitDx=0;exitDy=0;entryX=0.5;entryY=0;entryDx=0;entryDy=0;" edge="1" parent="1" source="nk3MQOf8kGJerJ07VEL7-59" target="nk3MQOf8kGJerJ07VEL7-19">
          <mxGeometry relative="1" as="geometry" />
        </mxCell>
        <mxCell id="nk3MQOf8kGJerJ07VEL7-59" value="&lt;span style=&quot;font-size: 14px;&quot;&gt;Supervisor&lt;br&gt;starts&lt;/span&gt;" style="ellipse;whiteSpace=wrap;html=1;aspect=fixed;fillColor=#f5f5f5;fontColor=#333333;strokeColor=#666666;" vertex="1" parent="1">
          <mxGeometry x="275" y="30" width="110" height="110" as="geometry" />
        </mxCell>
        <mxCell id="nk3MQOf8kGJerJ07VEL7-61" value="" style="edgeStyle=orthogonalEdgeStyle;rounded=0;orthogonalLoop=1;jettySize=auto;html=1;exitX=0.5;exitY=1;exitDx=0;exitDy=0;entryX=0.5;entryY=0;entryDx=0;entryDy=0;" edge="1" parent="1" source="nk3MQOf8kGJerJ07VEL7-30" target="nk3MQOf8kGJerJ07VEL7-43">
          <mxGeometry relative="1" as="geometry">
            <mxPoint x="290" y="948" as="sourcePoint" />
            <mxPoint x="370" y="1090" as="targetPoint" />
          </mxGeometry>
        </mxCell>
        <mxCell id="nk3MQOf8kGJerJ07VEL7-62" value="&lt;font style=&quot;font-size: 14px;&quot;&gt;yes&lt;/font&gt;" style="edgeLabel;html=1;align=center;verticalAlign=middle;resizable=0;points=[];" vertex="1" connectable="0" parent="nk3MQOf8kGJerJ07VEL7-61">
          <mxGeometry x="-0.1581" relative="1" as="geometry">
            <mxPoint x="-15" as="offset" />
          </mxGeometry>
        </mxCell>
        <mxCell id="nk3MQOf8kGJerJ07VEL7-43" value="&lt;span style=&quot;font-size: 14px;&quot;&gt;Rest discovery reset timer&lt;/span&gt;" style="rounded=0;whiteSpace=wrap;html=1;" vertex="1" parent="1">
          <mxGeometry x="230" y="1000" width="120" height="60" as="geometry" />
        </mxCell>
      </root>
    </mxGraphModel>
  </diagram>
</mxfile>
